<svg width="21" height="17" viewBox="0 0 21 17" fill="none" xmlns="http://www.w3.org/2000/svg">
<path d="M10.5146 9.33014L3.87402 15.9708C3.41504 16.4297 2.67285 16.4297 2.21875 15.9708L1.11523 14.8672C0.65625 14.4083 0.65625 13.6661 1.11523 13.212L5.82227 8.50494L1.11523 3.79791C0.65625 3.33893 0.65625 2.59674 1.11523 2.14264L2.21387 1.02936C2.67285 0.570374 3.41504 0.570374 3.86914 1.02936L10.5098 7.66998C10.9736 8.12897 10.9736 8.87115 10.5146 9.33014ZM19.8896 7.66998L13.249 1.02936C12.79 0.570374 12.0479 0.570374 11.5938 1.02936L10.4902 2.13287C10.0312 2.59186 10.0312 3.33405 10.4902 3.78815L15.1973 8.49518L10.4902 13.2022C10.0312 13.6612 10.0312 14.4034 10.4902 14.8575L11.5938 15.961C12.0527 16.42 12.7949 16.42 13.249 15.961L19.8896 9.32037C20.3486 8.87115 20.3486 8.12897 19.8896 7.66998Z" fill="#FF64AE"/>
</svg>
