<svg width="29" height="38" viewBox="0 0 29 38" fill="none" xmlns="http://www.w3.org/2000/svg">
<path d="M7.22394 37.6264C-2.41514 27.9873 -2.40082 12.3733 7.22394 2.74853C7.64684 2.32564 8.30212 2.25632 8.80206 2.56878L13.6127 5.5756C13.8664 5.73413 14.0562 5.97676 14.1492 6.26109C14.2421 6.54541 14.2321 6.85335 14.121 7.13108L11.7157 13.1444C11.613 13.4012 11.4295 13.6177 11.193 13.7612C10.9564 13.9047 10.6797 13.9674 10.4044 13.9399L6.26222 13.5258C4.69984 17.8498 4.73242 22.6154 6.26222 26.8491L10.4044 26.4349C10.6797 26.4074 10.9565 26.4701 11.193 26.6136C11.4296 26.7571 11.6131 26.9736 11.7158 27.2305L14.1211 33.2438C14.2322 33.5216 14.2421 33.8295 14.1492 34.1138C14.0563 34.3981 13.8664 34.6408 13.6128 34.7993L8.80213 37.8061C8.55749 37.959 8.26827 38.0245 7.98165 37.9918C7.69503 37.9592 7.42794 37.8303 7.22394 37.6264ZM18.3414 7.08588C19.2195 8.57374 19.2195 10.4263 18.3414 11.9142C18.0482 12.4109 17.3685 12.5049 16.9522 12.1057L16.5087 11.6808C16.2184 11.4026 16.153 10.9666 16.3409 10.6113C16.5218 10.2688 16.6163 9.88733 16.6163 9.50003C16.6163 9.11272 16.5218 8.73127 16.3409 8.38879C16.1529 8.03343 16.2184 7.59747 16.5087 7.3193L16.9522 6.89432C17.3685 6.49517 18.0482 6.58913 18.3414 7.08588ZM25.1537 0.318093C29.6172 5.63245 29.6137 13.3718 25.1537 18.6819C24.8217 19.0773 24.2237 19.1084 23.851 18.7511L23.4207 18.3387C23.0823 18.0143 23.0513 17.483 23.3517 17.1231C27.0394 12.7042 27.0363 6.29211 23.3517 1.87691C23.0513 1.51695 23.0822 0.985691 23.4207 0.661281L23.851 0.248847C24.2237 -0.108368 24.8217 -0.07727 25.1537 0.318093ZM21.7417 3.65356C24.4173 7.09152 24.4216 11.9029 21.7417 15.3464C21.4159 15.7651 20.7994 15.8104 20.4165 15.4432L19.9847 15.0291C19.6581 14.716 19.6137 14.2057 19.8893 13.8468C21.8588 11.2815 21.8586 7.71837 19.8893 5.15322C19.6137 4.7943 19.6581 4.28405 19.9847 3.97084L20.4165 3.55678C20.7994 3.18962 21.4159 3.23489 21.7417 3.65356Z" fill="white"/>
</svg>
